<?xml version="1.0" encoding="utf-8"?>
<!-- Generator: Adobe Illustrator 26.5.0, SVG Export Plug-In . SVG Version: 6.00 Build 0)  -->
<svg version="1.1" id="Ebene_1" xmlns="http://www.w3.org/2000/svg" xmlns:xlink="http://www.w3.org/1999/xlink" x="0px" y="0px"
	 viewBox="0 0 69.1 69.1" style="enable-background:new 0 0 69.1 69.1;" xml:space="preserve">
<style type="text/css">
	.st0{fill:#00C7FC;}
	.st1{fill:#666666;}
</style>
<path d="M7.9,1.6c-7.4,21.6-7.4,45,0,66.6c10.3-3.5,20.5-7,30.8-10.5c-5.1-14.8-5-30.8,0-45.5C28.4,8.6,18.1,5.1,7.9,1.6z
	 M33.9,25.4c-1-0.1-1.9-0.2-2.8-0.4c0.2-1.1,0.3-2.2,0.5-3.3h0.1v-0.1c1,0.2,1.8,0.3,2.8,0.5c-0.2,1.1-0.3,2.1-0.5,3.1h-0.1
	C33.9,25.3,33.9,25.3,33.9,25.4z M33.6,29.6c-0.1,1-0.1,2-0.2,3.1h-0.1v0.1c-0.9,0-1.8,0-2.8-0.1c0-1.1,0.1-2.2,0.2-3.3h0.1v-0.1
	C31.7,29.4,32.6,29.5,33.6,29.6z M10.4,62.2c-0.9,0.3-1.8,0.5-2.7,0.8c-0.5-1.6-0.9-3.1-1.2-4.7c0.9-0.2,1.8-0.4,2.8-0.7
	C9.6,59.3,10,60.7,10.4,62.2z M4.6,21.3c0.2-1.5,0.4-2.9,0.7-4.5c0.9,0.2,1.8,0.3,2.8,0.5c-0.3,1.4-0.5,2.8-0.7,4.3
	C6.4,21.5,5.5,21.4,4.6,21.3z M6.8,27.5c-0.1,1.4-0.2,2.8-0.2,4.4c-0.9,0-1.8-0.1-2.8-0.1c0-1.4,0.1-2.9,0.2-4.5
	C4.9,27.4,5.8,27.5,6.8,27.5z M6.6,37.6c0,1.6,0.1,3.1,0.2,4.6c-0.9,0.1-1.9,0.1-2.8,0.2c-0.1-1.6-0.2-3.1-0.2-4.8
	C4.7,37.6,5.6,37.6,6.6,37.6z M7.4,47.8c0.2,1.4,0.4,2.8,0.7,4.3c-0.9,0.2-1.8,0.3-2.8,0.5c-0.2-1.4-0.5-2.8-0.7-4.5
	C5.5,48.1,6.4,47.9,7.4,47.8z M9.3,11.8c-0.9-0.2-1.8-0.4-2.8-0.7C6.9,9.5,7.3,8,7.8,6.5C8.7,6.7,9.6,7,10.5,7.3
	C10,8.8,9.6,10.3,9.3,11.8z M12.1,7.9h0.1c0-0.1,0-0.1,0-0.1c6.6,1.9,13.1,3.8,19.7,5.8c-1.9,6.4-2.9,13-3,19.6h-0.1v0.1
	C22,33.2,15.2,33,8.3,32.9C8.4,24.4,9.7,16.1,12.1,7.9z M31.9,56c-6.6,1.9-13.1,3.8-19.8,5.7c-2.4-8.2-3.6-16.5-3.8-25
	c6.9-0.1,13.7-0.3,20.6-0.4C29.1,43,30,49.6,31.9,56z M33.4,14.1C33.4,14.1,33.5,14.1,33.4,14.1c0.1,0,0.1,0,0.1-0.1
	c0.9,0.3,1.8,0.5,2.7,0.8c-0.3,1.1-0.6,2.1-0.9,3.3h-0.1v0.1c-0.9-0.2-1.8-0.4-2.8-0.7C32.8,16.3,33.1,15.2,33.4,14.1z M31.1,44.8
	h0.1v-0.1c0.9-0.1,1.8-0.2,2.8-0.4c0.1,1,0.3,2,0.5,3.1h-0.1v0.1c-0.9,0.2-1.8,0.3-2.8,0.5C31.4,47,31.3,45.9,31.1,44.8z M36.2,54.8
	c-0.9,0.2-1.8,0.5-2.7,0.8c-0.3-1.1-0.6-2.2-0.9-3.4c0.9-0.2,1.8-0.4,2.7-0.7C35.6,52.6,35.9,53.7,36.2,54.8z M33.6,40.2L33.6,40.2
	L33.6,40.2c-1,0.2-1.9,0.2-2.9,0.3c-0.1-1.1-0.2-2.3-0.2-3.5h0.1v-0.1c0.9,0,1.8,0,2.8-0.1C33.5,38,33.5,39.1,33.6,40.2z"/>
<g>
	<path class="st0" d="M67,46.6l0.7,2.1l-25.4,7.8l-2-6.3l25.4-7.8l0.9,2.8"/>
</g>
<g>
	<path class="st0" d="M40.3,26.1l10.5-15.6l10-0.3L49.1,26.6"/>
</g>
<polygon class="st1" points="63.4,40 51.1,30.4 41.6,32.5 53.4,43.1 "/>
</svg>
